<svg xmlns="http://www.w3.org/2000/svg" version="1.1" xmlns:xlink="http://www.w3.org/1999/xlink" xmlns:svgjs="http://svgjs.dev/svgjs" width="100%" height="100%" viewBox="0 0 1000 600"><rect width="1000" height="600" x="0" y="0" fill="#050505"/><g><rect width="333.3333333333333" height="333.3333333333333" rx="13.333333333333334" ry="13.333333333333334" y="174.04419179111906" fill="#0b235f" transform="matrix(0.823332746163794,0,0,0.823332746163794,0,19.481583950279685)" x="151.8219757080078"/><path d="M265.4386645129288 397.67470306520397L265.4386645129288 397.67470306520397Q271.46970643225023 397.67470306520397 273.9517121452017 394.566396845246Q276.4569141732276 391.48128694036234 276.4569141732276 382.41152774630586L276.4569141732276 382.41152774630586L276.4569141732276 285.21896758493403Q269.6835901715281 282.76015818705685 267.3175660339482 279.582263021876L267.3175660339482 279.582263021876L268.9413080891501 265.71086660743674L308.0039026742934 265.71086660743674L309.7204299897925 279.582263021876Q307.02965744117216 282.76015818705685 300.5114929052902 285.21896758493403L300.5114929052902 285.21896758493403L300.34911869977 380.9501598966242Q300.34911869977 400.27269035352697 292.9262978759898 407.95067064312457L292.9262978759898 407.95067064312457Q289.00612062843095 412.01002578112946 282.487956092549 413.9353199322974Q275.94659524159266 415.8606140834654 268.36140021229227 415.6982398779452Q260.77620518299193 415.53586567242496 253.39977698936033 413.3322157403652Q246.0233487957288 411.12856580830555 240.409840547745 406.95322909492916L240.409840547745 406.95322909492916L240.409840547745 403.45058551870784Q240.409840547745 401.73405820320875 240.8969631643056 398.37059251743335Q241.38408578086614 394.98393051658354 242.31193838383868 391.2725201046935Q243.26298730188552 387.56110969280337 244.56198094604707 384.9399260894061L244.56198094604707 384.9399260894061L259.63958574435054 384.9399260894061Q261.93602093670756 388.5353549259246 262.9102661698287 397.51232885968375L262.9102661698287 397.51232885968375Q264.04688560847 397.67470306520397 265.4386645129288 397.67470306520397ZM318.76699286877465 279.582263021876L318.76699286877465 279.582263021876L320.39073492397654 265.71086660743674L396.5674336280207 265.71086660743674L396.5674336280207 294.75265308047676L384.25019032356045 296.30680619045575Q380.3300130760015 292.96653681975465 378.05677419871887 283.8967776256982L378.05677419871887 283.8967776256982L352.03050868533956 283.8967776256982L352.03050868533956 314.33034300319696L375.2036274445784 314.33034300319696Q377.31449211634083 309.27354631699677 379.35576784288037 307.30185953568014L379.35576784288037 307.30185953568014L389.8868948866185 308.46167528939577L389.8868948866185 338.2225475297395L379.35576784288037 339.521541173901Q377.31449211634083 337.96738806392204 375.2036274445784 332.5162540214585L375.2036274445784 332.5162540214585L352.03050868533956 332.5162540214585L352.03050868533956 360.23585053526256Q363.21113255115847 362.76424887836265 368.19834029213575 367.07876348218497L368.19834029213575 367.07876348218497L366.55140192185956 380.9501598966242L320.39073492397654 380.9501598966242L318.76699286877465 367.07876348218497Q320.9706428008343 364.22561672804443 327.97592995327693 361.5348441794241L327.97592995327693 361.5348441794241L327.97592995327693 285.21896758493403Q321.0634280611316 282.76015818705685 318.76699286877465 279.582263021876Z " fill="#050505" transform="matrix(0.823332746163794,0,0,0.823332746163794,0,19.481583950279685)"/><path d="M581.886236641365 299.73604800386136L581.886236641365 299.73604800386136L568.4886372813756 298.08348068192436L568.4886372813756 267.6585358798337L687.5029945915901 267.6585358798337L687.5029945915901 298.08348068192436L674.1053952316007 299.73604800386136Q671.3019328104575 297.7588692436867 668.823081827552 290.79447838695205L668.823081827552 290.79447838695205L643.2968187297747 290.79447838695205L643.2968187297747 389.3583150881959Q651.5891654702087 392.69295986281884 655.0123406370783 396.4112363371771L655.0123406370783 396.4112363371771L652.8285909616616 414.0582945250046L603.1335307805554 414.0582945250046L600.9792912358874 396.4112363371771Q603.7827536570305 392.7814902550655 612.6948131431909 389.3583150881959L612.6948131431909 389.3583150881959L612.6948131431909 290.79447838695205L587.1685500454137 290.79447838695205Q584.6896990625082 297.7588692436867 581.886236641365 299.73604800386136ZM780.8730482810319 375.1639421979869L780.8730482810319 375.1639421979869L796.6314581009314 377.1116108274126L796.6314581009314 414.0582945250046L697.9790910074408 414.0582945250046L695.8838717242708 396.4112363371771Q698.687334145414 392.7814902550655 707.6289037623231 389.3583150881959L707.6289037623231 389.3583150881959L707.6289037623231 292.2699849243958Q698.8053746684094 289.14191106501505 695.8838717242708 285.09902315241914L695.8838717242708 285.09902315241914L697.9790910074408 267.45196496459164L794.8608502559988 267.45196496459164L794.8608502559988 304.39864866218363L779.1909708283459 306.37582742235827Q774.2332688625349 302.1263685945203 771.3117659183963 290.58790747170997L771.3117659183963 290.58790747170997L738.230909348907 290.58790747170997L738.230909348907 327.1214493388177L767.6820198362847 327.1214493388177Q770.2789113421857 320.89481175080505 772.9938433710821 318.2093898526573L772.9938433710821 318.2093898526573L786.3619326003227 319.74391665159885L786.3619326003227 357.5168840101594L772.9938433710821 359.28749185509184Q770.3969518651811 357.1037421796751 767.6820198362847 350.34592223818265L767.6820198362847 350.34592223818265L738.230909348907 350.34592223818265L738.230909348907 390.9223520178863L772.9938433710821 390.9223520178863Q775.7677956614765 379.70850233331373 780.8730482810319 375.1639421979869ZM889.3817990446468 292.5650862318846L889.3817990446468 292.5650862318846Q883.0666310643875 289.7616238107414 870.2887444501243 289.7616238107414L870.2887444501243 289.7616238107414Q857.5403679666102 289.7616238107414 849.6611630566605 300.768902580072L849.6611630566605 300.768902580072Q841.7524480159618 311.77618134940246 841.7524480159618 339.4566839918476L841.7524480159618 339.4566839918476Q841.7524480159618 367.04865624204615 849.3365516184228 378.6756477571031Q856.9206552208838 390.3026392721599 871.7347408568193 390.3026392721599L871.7347408568193 390.3026392721599Q894.4575415334533 390.3026392721599 912.5177415517651 383.4562889384208L912.5177415517651 383.4562889384208L920.1903755464726 402.34277261770114Q897.6741457850807 415.7108618469417 867.2787111137391 415.7108618469417L867.2787111137391 415.7108618469417Q836.8832764423975 415.7108618469417 823.3971466901613 398.5064556203473L823.3971466901613 398.5064556203473Q809.9110169379253 381.4791101782462 809.9110169379253 342.2601464129908L809.9110169379253 342.2601464129908Q809.9110169379253 303.1592231707309 826.6137509417888 284.420290145195Q843.3164849456522 265.710867250408 873.4168183095052 265.710867250408L873.4168183095052 265.710867250408Q897.6741457850807 265.710867250408 919.5706628007464 279.196997002644L919.5706628007464 279.196997002644L919.5706628007464 283.94812805321294Q919.5706628007464 286.33844864387186 918.8919297935221 291.26664047893405Q918.213196786298 296.19483231399624 916.9147510333474 301.5361659795427Q915.6458154111459 306.8774996450892 913.7571670432179 310.6252862501964L913.7571670432179 310.6252862501964L893.6312578724848 310.6252862501964Q890.6212245360995 304.72326010042127 889.3817990446468 292.5650862318846ZM1020.4067795696535 389.3583150881959L1020.4067795696535 389.3583150881959L1020.4067795696535 346.9227470713131L973.7217527249326 346.9227470713131L973.7217527249326 389.3583150881959Q981.92556907312 392.69295986281884 985.3487442399895 396.4112363371771L985.3487442399895 396.4112363371771L983.2830350875684 414.0582945250046L933.4699343834666 414.0582945250046L931.4042252310454 396.4112363371771Q934.2076876521884 392.7814902550655 943.1197471383489 389.3583150881959L943.1197471383489 389.3583150881959L943.1197471383489 292.2699849243958Q934.296218044435 289.14191106501505 931.4042252310454 285.09902315241914L931.4042252310454 285.09902315241914L933.4699343834666 267.45196496459164L983.2830350875684 267.45196496459164L985.3487442399895 285.09902315241914Q981.92556907312 289.14191106501505 973.7217527249326 292.2699849243958L973.7217527249326 292.2699849243958L973.7217527249326 325.67545293212277L1020.4067795696535 325.67545293212277L1020.4067795696535 292.2699849243958Q1011.5832504757399 289.14191106501505 1008.6912576623499 285.09902315241914L1008.6912576623499 285.09902315241914L1010.8750073377668 267.45196496459164L1060.570067518873 267.45196496459164L1062.7538171942897 285.09902315241914Q1059.3306420274203 289.14191106501505 1051.0087851562373 292.2699849243958L1051.0087851562373 292.2699849243958L1051.0087851562373 389.3583150881959Q1059.3306420274203 392.69295986281884 1062.7538171942897 396.4112363371771L1062.7538171942897 396.4112363371771L1060.570067518873 414.0582945250046L1010.8750073377668 414.0582945250046L1008.6912576623499 396.4112363371771Q1011.4947200834932 392.7814902550655 1020.4067795696535 389.3583150881959Z " fill="#616161" transform="matrix(0.823332746163794,0,0,0.823332746163794,0,19.481583950279685)"/></g></svg>